<?xml version="1.0" encoding="UTF-8" standalone="no"?>
<!DOCTYPE svg PUBLIC "-//W3C//DTD SVG 20010904//EN"
              "http://www.w3.org/TR/2001/REC-SVG-20010904/DTD/svg10.dtd">

<svg xmlns="http://www.w3.org/2000/svg"
     width="10in" height="10in"
     viewBox="0 0 3000 3000">
  <path id="Auswahl"
        fill="black" stroke="black" stroke-width="1"
        d="M 256.00,7.08
           C 256.00,7.08 323.00,7.08 323.00,7.08
             323.00,7.08 526.00,7.08 526.00,7.08
             526.00,7.08 1140.00,7.08 1140.00,7.08
             1142.35,7.00 1145.63,6.78 1147.67,8.02
             1150.06,9.47 1152.03,13.57 1153.42,16.00
             1153.42,16.00 1163.85,34.00 1163.85,34.00
             1163.85,34.00 1213.42,120.00 1213.42,120.00
             1213.42,120.00 1340.42,340.00 1340.42,340.00
             1340.42,340.00 1421.28,480.00 1421.28,480.00
             1421.28,480.00 1538.58,683.00 1538.58,683.00
             1538.58,683.00 1732.58,1019.00 1732.58,1019.00
             1732.58,1019.00 2191.42,1814.00 2191.42,1814.00
             2191.42,1814.00 2286.15,1978.00 2286.15,1978.00
             2309.67,2019.20 2328.00,2057.91 2371.00,2082.72
             2388.49,2092.81 2407.85,2100.23 2428.00,2102.71
             2444.41,2104.74 2461.47,2104.19 2478.00,2104.00
             2483.26,2103.93 2493.30,2102.79 2498.00,2100.65
             2511.99,2094.27 2516.98,2079.26 2517.00,2065.00
             2517.00,2065.00 2517.00,754.00 2517.00,754.00
             2517.00,754.00 2517.00,497.00 2517.00,497.00
             2517.00,457.92 2521.91,411.94 2492.83,381.04
             2480.31,367.74 2459.37,358.09 2441.00,358.00
             2441.00,358.00 2425.00,358.00 2425.00,358.00
             2425.00,358.00 2398.00,358.00 2398.00,358.00
             2376.64,358.25 2366.03,375.29 2366.00,395.00
             2366.00,395.00 2366.00,791.00 2366.00,791.00
             2366.00,791.00 2366.00,970.00 2366.00,970.00
             2365.94,974.98 2365.06,980.09 2364.25,985.00
             2358.57,1019.38 2336.59,1041.70 2304.00,1052.33
             2294.00,1055.59 2282.53,1057.98 2272.00,1058.00
             2272.00,1058.00 2103.00,1058.00 2103.00,1058.00
             2096.86,1057.92 2088.02,1056.34 2082.00,1054.87
             2036.51,1043.76 2015.07,1001.05 2015.00,957.00
             2015.00,957.00 2015.00,226.00 2015.00,226.00
             2015.00,226.00 2015.00,182.00 2015.00,182.00
             2015.00,182.00 2015.00,144.00 2015.00,144.00
             2015.00,102.44 2010.33,50.47 2048.00,22.48
             2054.18,17.88 2060.82,14.54 2068.00,11.81
             2076.37,8.63 2086.06,7.01 2095.00,7.00
             2095.00,7.00 2690.00,7.00 2690.00,7.00
             2690.00,7.00 2750.00,7.00 2750.00,7.00
             2782.07,7.00 2809.97,5.62 2836.00,28.29
             2840.87,32.53 2845.28,37.70 2848.96,43.00
             2853.61,49.69 2858.27,59.28 2860.92,67.00
             2864.32,76.87 2866.98,88.56 2867.00,99.00
             2867.00,99.00 2867.00,702.00 2867.00,702.00
             2867.00,702.00 2867.00,1907.00 2867.00,1907.00
             2867.00,1907.00 2867.00,2367.00 2867.00,2367.00
             2866.93,2410.89 2835.81,2442.86 2794.00,2451.40
             2786.72,2452.89 2781.51,2453.99 2774.00,2454.00
             2774.00,2454.00 2375.00,2454.00 2375.00,2454.00
             2375.00,2454.00 2233.00,2454.00 2233.00,2454.00
             2233.00,2454.00 2162.00,2454.00 2162.00,2454.00
             2153.09,2453.83 2152.21,2448.08 2148.15,2441.00
             2148.15,2441.00 2126.72,2404.00 2126.72,2404.00
             2126.72,2404.00 2033.15,2242.00 2033.15,2242.00
             2033.15,2242.00 1826.42,1884.00 1826.42,1884.00
             1826.42,1884.00 1699.42,1664.00 1699.42,1664.00
             1699.42,1664.00 1646.99,1573.00 1646.99,1573.00
             1646.99,1573.00 1576.58,1451.00 1576.58,1451.00
             1576.58,1451.00 1423.58,1186.00 1423.58,1186.00
             1423.58,1186.00 1110.00,643.00 1110.00,643.00
             1110.00,643.00 1030.85,506.00 1030.85,506.00
             1030.85,506.00 1001.42,455.00 1001.42,455.00
             993.71,441.71 987.63,429.95 977.56,418.00
             953.38,389.30 920.36,370.62 884.00,362.35
             874.36,360.16 862.86,358.02 853.00,358.00
             853.00,358.00 420.00,358.00 420.00,358.00
             420.00,358.00 223.00,358.00 223.00,358.00
             203.32,357.77 181.58,351.76 166.00,339.48
             143.13,321.47 131.04,288.59 131.00,260.00
             131.00,260.00 131.00,132.00 131.00,132.00
             131.00,105.10 128.93,77.50 142.31,53.00
             158.91,22.60 187.84,12.09 220.00,7.08
             220.00,7.08 256.00,7.08 256.00,7.08 Z
           M 847.99,560.00
           C 847.99,560.00 864.15,588.00 864.15,588.00
             864.15,588.00 931.15,704.00 931.15,704.00
             931.15,704.00 1139.58,1065.00 1139.58,1065.00
             1139.58,1065.00 1486.42,1666.00 1486.42,1666.00
             1486.42,1666.00 1639.42,1931.00 1639.42,1931.00
             1639.42,1931.00 1767.15,2152.00 1767.15,2152.00
             1767.15,2152.00 1893.58,2371.00 1893.58,2371.00
             1893.58,2371.00 1974.99,2512.00 1974.99,2512.00
             1989.58,2536.83 2003.42,2565.48 2022.29,2587.00
             2049.97,2618.57 2101.85,2641.93 2144.00,2642.00
             2144.00,2642.00 2776.00,2642.00 2776.00,2642.00
             2791.26,2642.07 2810.86,2646.62 2824.00,2654.45
             2850.23,2670.08 2866.95,2703.76 2867.00,2734.00
             2867.00,2734.00 2867.00,2907.00 2867.00,2907.00
             2866.92,2913.76 2865.51,2920.47 2863.87,2927.00
             2852.93,2970.58 2811.78,2992.93 2769.00,2993.00
             2769.00,2993.00 2285.00,2993.00 2285.00,2993.00
             2285.00,2993.00 1856.00,2993.00 1856.00,2993.00
             1853.53,2993.00 1850.30,2993.20 1848.10,2991.98
             1845.33,2990.44 1843.55,2986.69 1842.00,2984.00
             1842.00,2984.00 1832.20,2967.00 1832.20,2967.00
             1832.20,2967.00 1782.00,2880.00 1782.00,2880.00
             1782.00,2880.00 1573.58,2519.00 1573.58,2519.00
             1573.58,2519.00 1427.42,2266.00 1427.42,2266.00
             1427.42,2266.00 1218.42,1904.00 1218.42,1904.00
             1218.42,1904.00 804.58,1187.00 804.58,1187.00
             804.58,1187.00 706.42,1017.00 706.42,1017.00
             706.42,1017.00 688.42,986.00 688.42,986.00
             669.86,954.02 656.11,931.24 624.00,910.34
             603.32,896.88 575.86,887.04 551.00,887.00
             551.00,887.00 519.00,887.00 519.00,887.00
             495.10,887.28 482.04,899.93 482.00,924.00
             482.00,924.00 482.00,2241.00 482.00,2241.00
             482.00,2241.00 482.00,2496.00 482.00,2496.00
             482.00,2496.00 482.00,2531.00 482.00,2531.00
             482.00,2531.00 482.00,2549.00 482.00,2549.00
             482.04,2571.86 489.41,2595.57 504.44,2612.99
             528.91,2641.34 563.46,2638.39 597.00,2638.00
             601.15,2637.95 607.09,2637.23 611.00,2635.90
             628.46,2629.95 632.97,2612.44 633.00,2596.00
             633.00,2596.00 633.00,2201.00 633.00,2201.00
             633.00,2201.00 633.00,2022.00 633.00,2022.00
             633.07,2016.08 634.62,2007.76 636.15,2002.00
             647.89,1957.98 690.06,1937.07 733.00,1937.00
             733.00,1937.00 888.00,1937.00 888.00,1937.00
             888.00,1937.00 897.00,1937.83 897.00,1937.83
             915.05,1939.58 928.53,1942.08 944.00,1952.52
             968.20,1968.85 982.96,2002.18 983.00,2031.00
             983.00,2031.00 983.00,2768.00 983.00,2768.00
             983.00,2768.00 983.00,2865.00 983.00,2865.00
             983.00,2886.71 984.60,2908.89 978.57,2930.00
             971.43,2955.04 957.69,2973.01 933.00,2982.80
             924.44,2986.19 917.24,2987.99 908.00,2988.00
             908.00,2988.00 311.00,2988.00 311.00,2988.00
             311.00,2988.00 247.00,2988.00 247.00,2988.00
             247.00,2988.00 219.00,2988.00 219.00,2988.00
             192.13,2987.96 165.46,2975.16 150.04,2953.00
             143.44,2943.52 140.58,2936.82 137.00,2926.00
             133.64,2915.82 131.02,2901.71 131.00,2891.00
             131.00,2891.00 131.00,2289.00 131.00,2289.00
             131.00,2289.00 131.00,1084.00 131.00,1084.00
             131.00,1084.00 131.00,631.00 131.00,631.00
             131.03,614.71 135.06,595.18 143.23,581.00
             146.38,575.53 151.54,568.46 156.04,564.09
             172.37,548.20 201.21,537.04 224.00,537.00
             224.00,537.00 635.00,537.00 635.00,537.00
             635.00,537.00 769.00,537.00 769.00,537.00
             769.00,537.00 813.00,537.00 813.00,537.00
             813.00,537.00 835.00,537.00 835.00,537.00
             835.00,537.00 847.99,560.00 847.99,560.00 Z" />
</svg>
