<?xml version="1.0" encoding="UTF-8" standalone="no"?>
<!DOCTYPE svg PUBLIC "-//W3C//DTD SVG 20010904//EN"
              "http://www.w3.org/TR/2001/REC-SVG-20010904/DTD/svg10.dtd">

<svg xmlns="http://www.w3.org/2000/svg"
     width="2.16667in" height="0.833335in"
     viewBox="0 0 650 250">
  <path id="Auswahl"
        fill="#480027" stroke="#480027" stroke-width="1"
        d="M 147.00,56.00
           C 147.00,52.45 147.39,39.55 146.40,37.04
             145.51,34.78 142.96,32.27 140.31,33.40
             137.54,34.59 138.00,39.53 138.00,42.00
             138.00,42.00 138.00,65.00 138.00,65.00
             137.96,67.37 138.04,70.58 136.26,72.40
             134.16,74.55 127.93,74.05 125.00,74.00
             116.50,73.84 117.01,70.30 117.00,63.00
             117.00,63.00 117.00,27.00 117.00,27.00
             117.00,23.49 116.31,16.07 118.60,13.43
             121.04,10.62 125.62,11.01 129.00,11.00
             129.00,11.00 157.00,11.00 157.00,11.00
             160.05,11.04 164.06,11.02 166.26,13.51
             168.32,15.84 168.00,20.06 168.00,23.00
             168.00,23.00 168.00,126.00 168.00,126.00
             168.00,126.00 168.00,149.00 168.00,149.00
             167.96,151.36 168.06,154.46 166.26,156.26
             164.18,158.35 159.76,158.00 157.00,158.00
             157.00,158.00 131.00,158.00 131.00,158.00
             123.16,157.85 122.78,154.36 119.15,148.00
             119.15,148.00 107.58,128.00 107.58,128.00
             107.58,128.00 66.01,56.00 66.01,56.00
             62.24,49.58 56.55,36.74 50.00,33.57
             46.48,31.87 42.79,32.01 39.00,32.00
             39.00,32.00 12.00,32.00 12.00,32.00
             9.87,31.96 7.35,32.05 5.67,30.40
             3.27,27.88 3.25,16.11 5.67,13.51
             7.99,10.86 12.72,11.02 16.00,11.00
             16.00,11.00 59.00,11.00 59.00,11.00
             67.08,11.15 67.52,15.39 71.28,22.00
             71.28,22.00 81.72,40.00 81.72,40.00
             81.72,40.00 124.42,114.00 124.42,114.00
             127.49,119.35 134.09,132.99 139.04,135.69
             141.64,137.10 144.16,136.97 147.00,137.00
             147.00,137.00 147.00,56.00 147.00,56.00 Z
           M 292.00,11.21
           C 302.42,11.02 314.27,13.34 324.00,17.06
             331.66,20.00 341.87,25.75 348.00,31.17
             359.09,40.97 366.96,51.21 372.55,65.00
             379.10,81.19 379.19,92.06 379.00,109.00
             378.64,139.07 357.48,169.49 331.00,182.73
             317.09,189.69 301.40,192.18 286.00,192.00
             278.25,191.91 269.43,190.04 262.00,187.86
             203.66,170.73 184.64,98.77 216.09,50.00
             231.50,26.10 253.86,15.52 281.00,11.21
             281.00,11.21 292.00,11.21 292.00,11.21 Z
           M 442.86,20.02
           C 442.86,20.02 442.86,50.00 442.86,50.00
             442.86,50.00 442.86,176.00 442.86,176.00
             443.00,178.80 443.21,182.40 441.83,184.90
             439.14,189.74 431.17,192.03 426.43,186.77
             422.98,182.96 423.01,176.83 423.00,172.00
             423.00,172.00 423.00,54.00 423.00,54.00
             423.00,46.49 421.97,24.78 424.65,19.02
             426.07,15.96 427.21,15.29 430.02,13.74
             435.34,12.58 440.93,14.20 442.86,20.02 Z
           M 515.00,173.00
           C 514.98,177.49 514.82,183.24 511.57,186.72
             507.29,191.33 499.21,190.57 496.17,184.95
             494.79,182.39 495.00,178.84 495.00,176.00
             495.00,176.00 495.00,52.00 495.00,52.00
             495.00,52.00 495.00,26.00 495.00,26.00
             495.05,22.72 495.06,19.86 497.43,17.28
             500.70,13.70 505.58,14.01 510.00,14.00
             510.00,14.00 558.00,14.00 558.00,14.00
             577.89,14.00 595.78,13.73 613.00,25.77
             629.37,37.21 633.22,51.07 633.00,70.00
             632.88,79.64 628.83,90.58 622.67,98.00
             613.91,108.58 600.19,114.34 587.00,117.00
             587.00,117.00 616.42,155.00 616.42,155.00
             616.42,155.00 629.56,172.00 629.56,172.00
             637.41,183.42 629.09,190.61 622.00,189.73
             615.41,188.91 609.19,178.98 605.35,174.00
             605.35,174.00 575.35,135.00 575.35,135.00
             568.58,126.22 567.48,121.02 556.00,121.00
             556.00,121.00 515.00,121.00 515.00,121.00
             515.00,121.00 515.00,173.00 515.00,173.00 Z
           M 238.09,53.04
           C 223.53,70.23 221.75,86.59 222.00,108.00
             222.21,125.49 232.12,145.28 245.00,156.83
             257.16,167.74 272.89,173.00 289.00,173.91
             294.91,174.24 307.32,172.14 313.00,170.14
             366.71,151.22 374.63,76.39 331.00,42.68
             324.76,37.86 317.59,34.29 310.00,32.15
             303.02,30.19 293.20,28.62 286.00,29.28
             265.17,32.29 252.38,36.18 238.09,53.04 Z
           M 558.00,103.00
           C 572.28,103.00 583.98,103.61 597.00,96.12
             617.19,84.51 619.42,52.09 599.00,39.47
             589.93,33.86 577.52,32.02 567.00,32.00
             567.00,32.00 515.00,32.00 515.00,32.00
             515.00,32.00 515.00,103.00 515.00,103.00
             515.00,103.00 558.00,103.00 558.00,103.00 Z
           M 34.00,137.00
           C 34.02,134.47 33.82,131.47 35.60,129.43
             38.38,126.23 49.42,126.06 52.57,128.74
             55.41,131.15 54.99,135.63 55.00,139.00
             55.00,139.00 55.00,174.00 55.00,174.00
             55.00,177.23 55.49,185.18 53.83,187.69
             51.97,190.47 47.94,189.99 45.00,190.00
             45.00,190.00 14.00,190.00 14.00,190.00
             11.47,189.99 7.64,190.34 5.74,188.40
             3.68,186.29 4.00,181.77 4.00,179.00
             4.00,179.00 4.00,75.00 4.00,75.00
             4.00,75.00 4.00,52.00 4.00,52.00
             4.05,49.70 3.99,47.28 5.60,45.43
             8.04,42.62 12.62,43.01 16.00,43.00
             16.00,43.00 40.00,43.00 40.00,43.00
             47.96,43.15 48.32,46.60 52.00,53.00
             52.00,53.00 63.58,73.00 63.58,73.00
             63.58,73.00 105.15,145.00 105.15,145.00
             108.64,151.08 115.34,164.75 121.01,168.07
             124.55,170.13 129.04,169.99 133.00,170.00
             133.00,170.00 160.00,170.00 160.00,170.00
             162.13,170.04 164.65,169.95 166.33,171.60
             168.73,174.12 168.75,185.89 166.33,188.49
             164.01,191.14 159.28,190.98 156.00,191.00
             156.00,191.00 113.00,191.00 113.00,191.00
             111.08,190.96 109.03,191.01 107.33,189.98
             104.94,188.53 102.97,184.43 101.58,182.00
             101.58,182.00 92.40,166.00 92.40,166.00
             92.40,166.00 45.58,85.00 45.58,85.00
             43.30,81.02 37.50,70.02 34.67,67.39
             26.93,60.17 25.01,67.23 25.00,74.00
             25.00,74.00 25.00,146.00 25.00,146.00
             25.00,161.62 22.46,168.60 34.00,169.00
             34.00,169.00 34.00,137.00 34.00,137.00 Z
           M 186.74,209.26
           C 184.86,209.85 181.63,207.66 185.25,204.96
             190.02,205.19 188.53,208.70 186.74,209.26 Z
           M 299.74,209.26
           C 297.86,209.85 294.63,207.66 298.25,204.96
             303.02,205.19 301.53,208.70 299.74,209.26 Z
           M 312.42,205.41
           C 314.88,207.94 314.06,221.28 314.00,225.00
             313.96,226.97 313.41,234.08 309.58,231.83
             307.64,230.69 308.00,225.97 308.00,224.00
             307.99,219.28 306.88,208.65 309.58,205.41
             309.50,205.18 310.91,204.26 312.42,205.41 Z
           M 404.74,209.26
           C 402.86,209.85 399.63,207.66 403.25,204.96
             408.02,205.19 406.53,208.70 404.74,209.26 Z
           M 561.74,209.26
           C 559.86,209.85 556.63,207.66 560.25,204.96
             565.02,205.19 563.53,208.70 561.74,209.26 Z
           M 258.00,212.24
           C 264.10,212.18 268.25,218.27 267.43,224.00
             266.14,233.02 259.80,232.67 253.00,232.31
             251.12,232.21 248.36,232.90 247.02,231.35
             245.77,229.90 246.00,225.88 246.05,224.00
             246.05,224.00 246.05,214.00 246.05,214.00
             246.05,214.00 246.05,209.06 246.05,209.06
             246.85,204.85 249.94,204.70 251.26,207.30
             252.09,208.92 251.98,212.16 252.00,214.00
             253.97,213.17 255.79,212.26 258.00,212.24 Z
           M 531.59,207.31
           C 532.70,205.02 535.11,205.03 536.26,207.31
             537.39,209.50 537.01,219.94 537.00,223.00
             536.99,226.19 536.07,237.26 531.00,230.00
             528.93,231.37 527.59,232.44 525.00,232.73
             511.09,234.31 512.14,209.24 526.00,212.44
             528.16,212.93 529.23,213.83 531.00,215.00
             531.00,213.12 530.83,208.90 531.59,207.31 Z
           M 5.23,218.00
           C 6.20,210.39 13.62,205.46 21.00,206.20
             23.39,206.44 27.64,207.59 28.51,210.16
             29.17,212.12 27.71,213.19 25.93,213.46
             23.29,213.50 19.25,210.62 15.13,213.46
             8.98,218.06 12.46,226.34 19.00,226.75
             23.50,227.03 23.54,224.52 30.00,226.00
             25.09,239.58 3.47,231.71 5.23,218.00 Z
           M 201.01,232.72
           C 194.11,232.01 196.71,224.63 195.70,220.09
             195.10,217.34 193.30,216.05 194.02,213.25
             195.53,207.40 200.13,203.76 202.00,212.00
             207.35,212.93 207.35,216.07 202.00,217.00
             202.00,217.00 202.00,228.00 202.00,228.00
             208.80,229.18 205.05,233.13 201.01,232.72 Z
           M 326.01,232.72
           C 319.11,232.01 321.71,224.63 320.70,220.09
             320.10,217.34 318.30,216.05 319.02,213.25
             320.53,207.40 325.13,203.76 327.00,212.00
             332.35,212.93 332.35,216.07 327.00,217.00
             327.00,217.00 327.00,228.00 327.00,228.00
             333.80,229.18 330.05,233.13 326.01,232.72 Z
           M 52.77,215.28
           C 58.67,221.00 55.73,230.30 48.00,232.43
             35.07,235.99 27.21,218.40 42.00,212.57
             46.19,211.91 49.53,212.13 52.77,215.28 Z
           M 78.42,213.60
           C 81.38,213.76 89.52,208.68 92.42,218.02
             93.02,220.53 93.31,226.45 92.42,228.94
             92.09,230.54 90.58,233.06 88.56,231.83
             85.73,230.12 88.28,220.05 84.17,218.55
             79.60,216.87 80.17,226.95 79.57,228.94
             79.09,230.54 77.58,233.06 75.56,231.83
             72.73,230.12 75.28,220.05 71.17,218.55
             66.24,216.74 67.43,228.54 65.98,230.67
             64.47,232.88 61.52,233.16 61.03,227.98
             61.03,227.98 61.03,224.00 61.03,224.00
             61.00,221.58 60.56,207.06 66.00,215.00
             73.69,209.93 73.96,213.36 78.42,213.60 Z
           M 115.42,213.60
           C 118.38,213.76 126.52,208.68 129.42,218.02
             130.02,220.53 130.31,226.45 129.42,228.94
             129.09,230.54 127.58,233.06 125.56,231.83
             122.73,230.12 125.28,220.05 121.17,218.55
             116.60,216.87 117.17,226.95 116.57,228.94
             116.09,230.54 114.58,233.06 112.56,231.83
             109.73,230.12 112.28,220.05 108.17,218.55
             103.24,216.74 104.43,228.54 102.98,230.67
             101.47,232.88 98.52,233.16 98.03,227.98
             98.03,227.98 98.03,224.00 98.03,224.00
             98.00,221.58 97.56,207.06 103.00,215.00
             110.69,209.93 110.96,213.36 115.42,213.60 Z
           M 134.04,219.00
           C 134.15,217.12 135.21,211.21 138.44,213.17
             139.71,213.93 139.81,215.72 139.95,217.02
             140.21,219.56 139.87,222.46 141.31,224.73
             143.37,227.96 146.87,226.78 147.77,221.98
             148.28,219.29 147.41,214.44 149.58,213.17
             152.11,211.69 153.55,215.15 153.77,217.02
             154.13,218.70 154.10,227.42 153.77,228.94
             152.63,232.82 150.20,233.15 148.00,230.00
             137.34,237.02 133.47,228.94 134.04,219.00 Z
           M 177.85,227.98
           C 177.55,229.85 176.11,233.31 173.58,231.83
             170.59,230.08 173.58,218.38 168.53,218.42
             164.31,218.46 165.33,226.41 164.57,228.94
             164.09,230.54 162.58,233.06 160.56,231.83
             158.38,230.51 158.58,217.63 159.31,215.08
             160.39,211.50 162.44,212.72 164.00,215.08
             175.66,207.32 179.49,217.82 177.85,227.98 Z
           M 186.74,231.83
           C 183.99,233.26 183.23,229.89 183.06,227.98
             182.70,223.96 182.15,216.32 184.58,213.17
             191.67,212.32 189.38,230.46 186.74,231.83 Z
           M 209.95,216.06
           C 209.88,213.92 211.45,212.11 213.60,213.17
             215.46,214.08 216.34,217.22 217.06,219.00
             217.06,219.00 220.00,225.00 220.00,225.00
             220.82,222.53 223.48,210.81 227.64,213.17
             229.72,214.35 228.75,217.27 228.17,219.00
             228.17,219.00 221.64,233.99 221.64,233.99
             218.48,239.18 211.34,241.76 210.00,233.99
             210.00,233.99 217.00,233.00 217.00,233.00
             215.62,230.33 210.02,218.42 209.95,216.06 Z
           M 271.04,219.00
           C 271.15,217.12 272.21,211.21 275.44,213.17
             276.71,213.93 276.81,215.72 276.95,217.02
             277.21,219.56 276.87,222.46 278.31,224.73
             280.37,227.96 283.87,226.78 284.77,221.98
             285.28,219.29 284.41,214.44 286.58,213.17
             289.11,211.69 290.55,215.15 290.77,217.02
             291.13,218.70 291.10,227.42 290.77,228.94
             289.63,232.82 287.20,233.15 285.00,230.00
             274.34,237.02 270.47,228.94 271.04,219.00 Z
           M 299.74,231.83
           C 296.99,233.26 296.23,229.89 296.06,227.98
             295.70,223.96 295.15,216.32 297.58,213.17
             304.67,212.32 302.38,230.46 299.74,231.83 Z
           M 360.56,237.83
           C 358.77,236.75 359.01,232.82 359.16,231.00
             359.16,231.00 359.16,215.08 359.16,215.08
             360.39,211.50 362.44,212.72 364.00,215.08
             365.94,213.84 367.69,212.64 370.00,212.32
             382.17,210.62 384.75,231.18 372.00,232.73
             369.23,233.07 367.40,232.11 365.00,231.00
             364.89,232.85 364.21,240.05 360.56,237.83 Z
           M 395.39,213.15
           C 396.65,213.83 396.54,215.34 395.95,216.43
             395.10,218.00 392.74,219.08 391.60,222.04
             390.69,224.39 391.28,227.60 390.26,229.85
             389.64,231.23 388.20,232.83 386.56,231.83
             384.38,230.51 384.58,217.63 385.31,215.08
             386.39,211.50 388.44,212.72 390.00,215.08
             391.43,214.02 393.48,212.13 395.39,213.15 Z
           M 404.74,231.83
           C 401.99,233.26 401.23,229.89 401.06,227.98
             400.70,223.96 400.15,216.32 402.58,213.17
             409.67,212.32 407.38,230.46 404.74,231.83 Z
           M 423.95,219.00
           C 424.69,217.05 426.48,211.37 429.64,213.17
             431.72,214.35 430.75,217.27 430.17,219.00
             429.04,222.36 425.04,233.88 420.20,231.83
             417.30,230.61 411.37,218.23 411.97,215.15
             412.14,214.30 412.53,213.59 413.31,213.17
             416.58,211.39 418.25,217.00 419.06,219.00
             419.06,219.00 422.00,225.00 422.00,225.00
             422.00,225.00 423.95,219.00 423.95,219.00 Z
           M 438.33,217.24
           C 437.07,216.77 436.46,215.70 437.17,214.45
             438.92,211.37 446.27,211.73 448.95,213.17
             455.62,216.78 454.43,228.54 452.98,230.67
             451.37,233.04 449.08,232.11 446.72,232.50
             444.74,232.40 443.11,233.02 441.00,232.50
             437.30,232.24 433.68,229.07 434.84,225.04
             436.53,219.25 443.49,219.72 448.00,221.00
             442.88,215.02 441.97,218.59 438.33,217.24 Z
           M 458.14,224.00
           C 456.69,211.34 471.89,209.96 475.12,214.49
             475.93,215.63 475.91,217.05 474.58,217.78
             472.68,218.81 469.82,216.98 467.15,218.28
             462.83,220.37 463.83,226.70 469.02,227.10
             471.93,227.48 472.25,226.14 477.00,227.10
             473.30,236.69 459.25,233.80 458.14,224.00 Z
           M 479.95,216.06
           C 479.88,213.92 481.45,212.11 483.60,213.17
             485.46,214.08 486.34,217.22 487.06,219.00
             487.06,219.00 490.00,225.00 490.00,225.00
             490.82,222.53 493.48,210.81 497.64,213.17
             499.72,214.35 498.75,217.27 498.17,219.00
             498.17,219.00 491.64,233.99 491.64,233.99
             488.48,239.18 481.34,241.76 480.00,233.99
             480.00,233.99 487.00,233.00 487.00,233.00
             485.62,230.33 480.02,218.42 479.95,216.06 Z
           M 552.39,213.15
           C 553.65,213.83 553.54,215.34 552.95,216.43
             552.10,218.00 549.74,219.08 548.60,222.04
             547.69,224.39 548.28,227.60 547.26,229.85
             546.64,231.23 545.20,232.83 543.56,231.83
             541.38,230.51 541.58,217.63 542.31,215.08
             543.39,211.50 545.44,212.72 547.00,215.08
             548.43,214.02 550.48,212.13 552.39,213.15 Z
           M 561.74,231.83
           C 558.99,233.26 558.23,229.89 558.06,227.98
             557.70,223.96 557.15,216.32 559.58,213.17
             566.67,212.32 564.38,230.46 561.74,231.83 Z
           M 580.95,219.00
           C 581.69,217.05 583.48,211.37 586.64,213.17
             588.72,214.35 587.75,217.27 587.17,219.00
             586.04,222.36 582.04,233.88 577.20,231.83
             574.30,230.61 568.37,218.23 568.97,215.15
             569.14,214.30 569.53,213.59 570.31,213.17
             573.58,211.39 575.25,217.00 576.06,219.00
             576.06,219.00 579.00,225.00 579.00,225.00
             579.00,225.00 580.95,219.00 580.95,219.00 Z
           M 591.11,224.00
           C 590.94,222.26 591.08,219.67 591.74,218.04
             594.52,211.16 604.77,210.23 608.99,216.21
             611.35,219.55 611.82,223.81 606.95,224.92
             606.95,224.92 601.00,224.92 601.00,224.92
             601.00,224.92 597.00,224.92 597.00,224.92
             602.16,229.73 602.88,226.30 610.00,228.00
             604.42,236.41 592.03,233.37 591.11,224.00 Z
           M 634.85,227.98
           C 634.55,229.85 633.11,233.31 630.58,231.83
             627.59,230.08 630.58,218.38 625.53,218.42
             621.31,218.46 622.33,226.41 621.57,228.94
             621.09,230.54 619.58,233.06 617.56,231.83
             615.38,230.51 615.58,217.63 616.31,215.08
             617.39,211.50 619.44,212.72 621.00,215.08
             632.66,207.32 636.49,217.82 634.85,227.98 Z
           M 45.90,227.46
           C 50.52,226.60 52.24,217.77 44.04,217.54
             36.98,220.46 40.44,228.48 45.90,227.46 Z
           M 256.97,227.46
           C 261.66,227.10 263.79,218.41 256.04,217.58
             249.21,220.28 252.33,227.82 256.97,227.46 Z
           M 369.97,227.46
           C 374.66,227.10 376.79,218.41 369.04,217.58
             362.21,220.28 365.33,227.82 369.97,227.46 Z
           M 526.00,227.46
           C 530.94,227.08 533.08,218.44 525.09,217.58
             518.43,220.31 521.49,227.81 526.00,227.46 Z
           M 597.00,221.00
           C 597.00,221.00 605.00,221.00 605.00,221.00
             602.38,216.37 599.62,216.37 597.00,221.00 Z
           M 440.00,228.00
           C 444.81,229.01 446.41,228.96 448.00,224.00
             443.53,224.06 441.60,223.42 440.00,228.00 Z
           M 642.91,232.09
           C 640.92,232.41 637.59,229.64 642.09,227.05
             647.15,227.94 644.97,231.76 642.91,232.09 Z
           M 336.42,232.02
           C 333.84,225.46 343.08,225.89 341.53,233.00
             341.30,234.02 340.88,235.01 340.26,235.85
             339.59,236.77 338.88,237.42 337.89,237.98
             336.48,238.78 335.49,238.76 334.00,239.00
             334.00,239.00 338.00,235.00 338.00,235.00
             338.00,235.00 336.42,232.02 336.42,232.02 Z" />
</svg>
