<?xml version="1.0" encoding="UTF-8" standalone="no"?>
<!DOCTYPE svg PUBLIC "-//W3C//DTD SVG 20010904//EN"
              "http://www.w3.org/TR/2001/REC-SVG-20010904/DTD/svg10.dtd">

<svg xmlns="http://www.w3.org/2000/svg"
     width="0.666667in" height="0.666667in"
     viewBox="0 0 48 48">
  <path id="Auswahl"
        fill="black" stroke="black" stroke-width="1"
        d="M 34.39,37.98
           C 32.38,36.70 30.08,32.16 28.85,30.00
             26.73,26.29 17.79,10.35 15.62,8.31
             10.95,3.93 2.63,7.98 2.63,3.00
             2.63,-0.73 9.59,-0.01 12.00,0.00
             19.82,0.04 19.08,0.94 24.99,11.00
             29.05,17.91 33.97,29.17 40.00,34.00
             40.00,34.00 40.00,6.00 40.00,6.00
             40.00,6.00 38.00,6.00 38.00,6.00
             38.00,8.00 38.21,13.05 37.40,14.68
             36.34,16.82 32.16,18.63 32.00,10.00
             31.97,7.90 31.73,3.23 33.02,1.60
             34.80,-0.65 43.20,-0.65 44.98,1.60
             46.04,2.94 45.97,5.38 46.00,7.00
             46.00,7.00 46.00,39.00 46.00,39.00
             43.12,39.00 36.69,39.44 34.39,37.98 Z
           M 13.47,9.99
           C 15.49,11.30 17.91,15.83 19.15,18.00
             19.15,18.00 31.53,38.85 31.53,38.85
             36.86,44.70 45.37,39.71 45.37,45.00
             45.37,48.86 37.52,48.04 35.00,48.00
             26.95,47.86 26.13,42.46 22.42,36.00
             18.76,29.62 13.32,18.52 8.00,14.00
             8.00,14.00 8.00,42.00 8.00,42.00
             8.00,42.00 10.00,42.00 10.00,42.00
             10.00,40.00 9.79,34.95 10.60,33.32
             11.66,31.18 15.84,29.37 16.00,38.00
             16.03,40.10 16.27,44.77 14.98,46.40
             13.00,48.90 5.00,48.90 3.02,46.40
             1.96,45.06 2.03,42.62 2.00,41.00
             2.00,41.00 2.00,9.00 2.00,9.00
             4.82,9.00 11.23,8.55 13.47,9.99 Z" />
</svg>
